<mxfile host="app.diagrams.net" modified="2020-11-30T13:58:53.432Z" agent="5.0 (X11)" etag="7wCBCfbi7tilSq3IAmoa" version="13.10.4" type="github">
  <diagram id="bfuN97yFrRAcLUbjw09J" name="Page-1">
    <mxGraphModel dx="1038" dy="1438" grid="1" gridSize="10" guides="1" tooltips="1" connect="1" arrows="1" fold="1" page="1" pageScale="1" pageWidth="850" pageHeight="1100" math="0" shadow="0">
      <root>
        <mxCell id="0" />
        <mxCell id="1" parent="0" />
        <mxCell id="0IUL6L5RD-h39QANV8M1-2" value="Backend" style="rounded=1;whiteSpace=wrap;html=1;" vertex="1" parent="1">
          <mxGeometry x="260" y="310" width="80" height="40" as="geometry" />
        </mxCell>
        <mxCell id="0IUL6L5RD-h39QANV8M1-3" value="Mobile Users" style="ellipse;shape=cloud;whiteSpace=wrap;html=1;" vertex="1" parent="1">
          <mxGeometry x="70" y="290" width="120" height="80" as="geometry" />
        </mxCell>
        <mxCell id="0IUL6L5RD-h39QANV8M1-6" value="Geodata Processing Service" style="rounded=1;whiteSpace=wrap;html=1;" vertex="1" parent="1">
          <mxGeometry x="420" y="290" width="100" height="80" as="geometry" />
        </mxCell>
        <mxCell id="0IUL6L5RD-h39QANV8M1-7" value="" style="endArrow=classic;startArrow=classic;html=1;exitX=1;exitY=0.5;exitDx=0;exitDy=0;entryX=0;entryY=0.5;entryDx=0;entryDy=0;" edge="1" parent="1" source="0IUL6L5RD-h39QANV8M1-2" target="0IUL6L5RD-h39QANV8M1-6">
          <mxGeometry width="50" height="50" relative="1" as="geometry">
            <mxPoint x="370" y="450" as="sourcePoint" />
            <mxPoint x="420" y="400" as="targetPoint" />
          </mxGeometry>
        </mxCell>
        <mxCell id="0IUL6L5RD-h39QANV8M1-8" value="" style="endArrow=classic;startArrow=classic;html=1;exitX=0.875;exitY=0.5;exitDx=0;exitDy=0;exitPerimeter=0;entryX=0;entryY=0.5;entryDx=0;entryDy=0;" edge="1" parent="1" source="0IUL6L5RD-h39QANV8M1-3" target="0IUL6L5RD-h39QANV8M1-2">
          <mxGeometry width="50" height="50" relative="1" as="geometry">
            <mxPoint x="400" y="760" as="sourcePoint" />
            <mxPoint x="450" y="710" as="targetPoint" />
          </mxGeometry>
        </mxCell>
        <mxCell id="0IUL6L5RD-h39QANV8M1-9" value="&lt;div&gt;routing service&lt;/div&gt;" style="ellipse;shape=cloud;whiteSpace=wrap;html=1;" vertex="1" parent="1">
          <mxGeometry x="370" y="460" width="160" height="100" as="geometry" />
        </mxCell>
        <mxCell id="0IUL6L5RD-h39QANV8M1-10" value="" style="endArrow=classic;startArrow=classic;html=1;entryX=0.625;entryY=0.2;entryDx=0;entryDy=0;entryPerimeter=0;" edge="1" parent="1" source="0IUL6L5RD-h39QANV8M1-6" target="0IUL6L5RD-h39QANV8M1-9">
          <mxGeometry width="50" height="50" relative="1" as="geometry">
            <mxPoint x="400" y="760" as="sourcePoint" />
            <mxPoint x="450" y="710" as="targetPoint" />
          </mxGeometry>
        </mxCell>
      </root>
    </mxGraphModel>
  </diagram>
</mxfile>
